<svg width="40" height="40" viewBox="0 0 40 40" fill="none" xmlns="http://www.w3.org/2000/svg">
<path fill-rule="evenodd" clip-rule="evenodd" d="M20.2717 0C9.52168 0 0.777344 8.97106 0.777344 19.9998C0.777344 24.3737 2.15262 28.43 4.49047 31.7225L2.06076 39.1532L9.55595 36.6963C12.6387 38.7892 16.3176 40 20.283 40C31.033 40 39.7773 31.0286 39.7773 20.0002C39.7773 8.97142 31.033 0.000330607 20.283 0.000330607L20.2717 0ZM14.8278 10.159C14.4497 9.23023 14.1631 9.19506 13.5903 9.17117C13.3952 9.15955 13.1779 9.14795 12.9369 9.14795C12.1917 9.14795 11.4125 9.37127 10.9426 9.86504C10.3697 10.4647 8.94851 11.8636 8.94851 14.7327C8.94851 17.6017 10.9885 20.3764 11.2634 20.7647C11.55 21.1523 15.2405 27.1253 20.9706 29.5596C25.4516 31.4643 26.7813 31.2878 27.8012 31.0644C29.2909 30.7353 31.1592 29.606 31.6291 28.2425C32.0991 26.8784 32.0991 25.7143 31.9613 25.4674C31.8238 25.2205 31.4454 25.0798 30.8726 24.7855C30.2998 24.4915 27.5146 23.0806 26.9874 22.8924C26.4715 22.6926 25.9789 22.7633 25.5894 23.3278C25.0393 24.1155 24.5007 24.9153 24.0651 25.3971C23.7212 25.7734 23.1594 25.8205 22.6898 25.6204C22.0594 25.3503 20.2947 24.7148 18.1169 22.7278C16.4321 21.1878 15.2861 19.2715 14.9539 18.6954C14.6214 18.1077 14.9196 17.7663 15.1829 17.449C15.4695 17.0844 15.7444 16.8259 16.031 16.4847C16.3176 16.1439 16.478 15.9674 16.6614 15.5676C16.8564 15.1796 16.7186 14.7798 16.5812 14.4858C16.4437 14.1918 15.2977 11.3228 14.8278 10.159Z" fill="#0DCF7D"/>
</svg>
